# xmcd
#
# Track frame offsets:
#	150
#	22915
#	53675
#	75394
#	103400
#	125764
#	148958
#	171909
#	191814
#	211302
#	234718
#	260187
#	285398
#	309606
#	329437
#
# Disc length: 4697 seconds
#
# Revision: 1
# Processed by: cddbd v1.5.2PL0 Copyright (c) Steve Scherf et al.
# Submitted via: audiograbber 1.83.01
#
DISCID=e612570f
DTITLE=Oliver Rajamani - Texas Gypsy Fire 
DYEAR=2013
DGENRE=Alternative Rock
TTITLE0=Texas Gypsy Fire (feat. Joel Guzman)
TTITLE1=Stay in Me
TTITLE2=Rosamunde (feat. Dotschy Reinhard and Joel Guzman)
TTITLE3=Vango!! (Lets Go!!!) [feat. Cindy Cashdollar]
TTITLE4=Austin, Tx
TTITLE5=Gypsy Romani Rose (feat. Willie Nelson, Dotschy Reinhardt and Erika Lakat
TTITLE5=os)
TTITLE6=The Apache (feat. Eric Johnson)
TTITLE7=Javari
TTITLE8=Tennessee Waltz (feat. Cindy Cashdollar)
TTITLE9=Texas Cactus Indian Flower (feat. Bob Livingsto and Dale Watson)
TTITLE10=Dancing Horse
TTITLE11=Cowgirl Belly Shake (feat. Carolyn Wonderland)
TTITLE12=Problems Are an Illusion (feat. Edie Brickell)
TTITLE13=Cowboy Guru
TTITLE14=Texas Fire
EXTD=
EXTT0=
EXTT1=
EXTT2=
EXTT3=
EXTT4=
EXTT5=
EXTT6=
EXTT7=
EXTT8=
EXTT9=
EXTT10=
EXTT11=
EXTT12=
EXTT13=
EXTT14=
PLAYORDER=
